<svg xmlns="http://www.w3.org/2000/svg" viewBox="0 0 600 800" fill="none">
  <rect width="600" height="800" fill="#14110F"/>
  <!-- Slim cabinet — narrower than Tower -->
  <rect x="215" y="55" width="170" height="640" rx="6" fill="#1E1B18"/>
  <rect x="215" y="55" width="170" height="640" rx="6" stroke="#C9A684" stroke-width="1" stroke-opacity="0.3"/>
  <!-- Display panel -->
  <rect x="230" y="85" width="140" height="380" rx="3" fill="#2A2520"/>
  <rect x="230" y="85" width="140" height="380" rx="3" fill="#C9A684" fill-opacity="0.03"/>
  <!-- Fragrance slots - narrow 2-column -->
  <rect x="238" y="98" width="56" height="70" rx="2" fill="#C9A684" fill-opacity="0.08"/>
  <rect x="304" y="98" width="56" height="70" rx="2" fill="#C9A684" fill-opacity="0.08"/>
  <rect x="238" y="178" width="56" height="70" rx="2" fill="#C9A684" fill-opacity="0.08"/>
  <rect x="304" y="178" width="56" height="70" rx="2" fill="#C9A684" fill-opacity="0.08"/>
  <rect x="238" y="258" width="56" height="70" rx="2" fill="#C9A684" fill-opacity="0.08"/>
  <rect x="304" y="258" width="56" height="70" rx="2" fill="#C9A684" fill-opacity="0.08"/>
  <rect x="238" y="338" width="56" height="70" rx="2" fill="#C9A684" fill-opacity="0.08"/>
  <rect x="304" y="338" width="56" height="70" rx="2" fill="#C9A684" fill-opacity="0.08"/>
  <!-- Bottle silhouettes -->
  <rect x="256" y="114" width="18" height="38" rx="2" fill="#C9A684" fill-opacity="0.26"/>
  <rect x="322" y="114" width="18" height="38" rx="2" fill="#C9A684" fill-opacity="0.22"/>
  <rect x="256" y="194" width="18" height="38" rx="2" fill="#C9A684" fill-opacity="0.18"/>
  <rect x="322" y="194" width="18" height="38" rx="2" fill="#C9A684" fill-opacity="0.18"/>
  <rect x="256" y="274" width="18" height="38" rx="2" fill="#C9A684" fill-opacity="0.18"/>
  <rect x="322" y="274" width="18" height="38" rx="2" fill="#C9A684" fill-opacity="0.18"/>
  <rect x="256" y="354" width="18" height="38" rx="2" fill="#C9A684" fill-opacity="0.18"/>
  <rect x="322" y="354" width="18" height="38" rx="2" fill="#C9A684" fill-opacity="0.18"/>
  <!-- Payment terminal -->
  <rect x="230" y="486" width="140" height="90" rx="3" fill="#C9A684" fill-opacity="0.06"/>
  <rect x="230" y="486" width="140" height="90" rx="3" stroke="#C9A684" stroke-width="0.5" stroke-opacity="0.25"/>
  <rect x="242" y="498" width="72" height="46" rx="2" fill="#C9A684" fill-opacity="0.12"/>
  <circle cx="341" cy="532" r="15" fill="#C9A684" fill-opacity="0.15"/>
  <!-- Dispensing tray -->
  <rect x="238" y="595" width="124" height="20" rx="2" fill="#C9A684" fill-opacity="0.1"/>
  <!-- Logo -->
  <text x="300" y="672" font-family="Georgia, serif" font-size="18" fill="#C9A684" fill-opacity="0.65" text-anchor="middle" letter-spacing="5">ÉCLAT</text>
  <text x="300" y="690" font-family="Arial, sans-serif" font-size="8" fill="#C9A684" fill-opacity="0.35" text-anchor="middle" letter-spacing="3">SLIM</text>
  <!-- Accent line top -->
  <line x1="283" y1="72" x2="317" y2="72" stroke="#C9A684" stroke-width="1" stroke-opacity="0.45"/>
</svg>
