<svg xmlns="http://www.w3.org/2000/svg" viewBox="0 0 600 800" fill="none">
  <rect width="600" height="800" fill="#14110F"/>
  <!-- Cabinet body -->
  <rect x="180" y="60" width="240" height="620" rx="8" fill="#1E1B18"/>
  <rect x="180" y="60" width="240" height="620" rx="8" stroke="#C9A684" stroke-width="1" stroke-opacity="0.3"/>
  <!-- Display panel - backlit -->
  <rect x="200" y="100" width="200" height="380" rx="4" fill="#2A2520"/>
  <rect x="200" y="100" width="200" height="380" rx="4" fill="#C9A684" fill-opacity="0.04"/>
  <!-- Fragrance slots grid -->
  <rect x="220" y="120" width="72" height="84" rx="3" fill="#C9A684" fill-opacity="0.08"/>
  <rect x="304" y="120" width="72" height="84" rx="3" fill="#C9A684" fill-opacity="0.08"/>
  <rect x="220" y="216" width="72" height="84" rx="3" fill="#C9A684" fill-opacity="0.08"/>
  <rect x="304" y="216" width="72" height="84" rx="3" fill="#C9A684" fill-opacity="0.08"/>
  <rect x="220" y="312" width="72" height="84" rx="3" fill="#C9A684" fill-opacity="0.08"/>
  <rect x="304" y="312" width="72" height="84" rx="3" fill="#C9A684" fill-opacity="0.08"/>
  <!-- Fragrance bottle icons simplified -->
  <rect x="244" y="140" width="24" height="44" rx="2" fill="#C9A684" fill-opacity="0.25"/>
  <rect x="328" y="140" width="24" height="44" rx="2" fill="#C9A684" fill-opacity="0.25"/>
  <rect x="244" y="236" width="24" height="44" rx="2" fill="#C9A684" fill-opacity="0.18"/>
  <rect x="328" y="236" width="24" height="44" rx="2" fill="#C9A684" fill-opacity="0.18"/>
  <rect x="244" y="332" width="24" height="44" rx="2" fill="#C9A684" fill-opacity="0.18"/>
  <rect x="328" y="332" width="24" height="44" rx="2" fill="#C9A684" fill-opacity="0.18"/>
  <!-- Payment terminal -->
  <rect x="215" y="500" width="170" height="90" rx="4" fill="#C9A684" fill-opacity="0.06"/>
  <rect x="215" y="500" width="170" height="90" rx="4" stroke="#C9A684" stroke-width="0.5" stroke-opacity="0.3"/>
  <rect x="228" y="515" width="80" height="50" rx="2" fill="#C9A684" fill-opacity="0.12"/>
  <circle cx="348" cy="545" r="18" fill="#C9A684" fill-opacity="0.15"/>
  <!-- Dispensing tray -->
  <rect x="210" y="610" width="180" height="28" rx="3" fill="#C9A684" fill-opacity="0.1"/>
  <!-- Logo area -->
  <text x="300" y="686" font-family="Georgia, serif" font-size="22" fill="#C9A684" fill-opacity="0.7" text-anchor="middle" letter-spacing="6">ÉCLAT</text>
  <text x="300" y="706" font-family="Arial, sans-serif" font-size="9" fill="#C9A684" fill-opacity="0.35" text-anchor="middle" letter-spacing="3">TOWER S1</text>
  <!-- Accent line top -->
  <line x1="280" y1="80" x2="320" y2="80" stroke="#C9A684" stroke-width="1" stroke-opacity="0.5"/>
</svg>
